<svg width="960" height="166" viewBox="0 0 960 166" fill="none" xmlns="http://www.w3.org/2000/svg">
<path d="M154.434 126V42H192.114C201.794 42 209.234 43.96 214.434 47.88C219.634 51.72 222.234 57 222.234 63.72C222.234 68.28 221.194 72.12 219.114 75.24C217.114 78.36 214.394 80.76 210.954 82.44C207.514 84.12 203.794 84.96 199.794 84.96L201.954 81.36C206.754 81.36 210.994 82.2 214.674 83.88C218.354 85.56 221.274 88.04 223.434 91.32C225.594 94.52 226.674 98.52 226.674 103.32C226.674 110.52 223.954 116.12 218.514 120.12C213.154 124.04 205.154 126 194.514 126H154.434ZM166.434 116.28H194.034C200.674 116.28 205.754 115.16 209.274 112.92C212.794 110.68 214.554 107.16 214.554 102.36C214.554 97.48 212.794 93.92 209.274 91.68C205.754 89.44 200.674 88.32 194.034 88.32H165.354V78.6H191.034C197.114 78.6 201.834 77.48 205.194 75.24C208.554 73 210.234 69.64 210.234 65.16C210.234 60.68 208.554 57.32 205.194 55.08C201.834 52.84 197.114 51.72 191.034 51.72H166.434V116.28ZM260.975 126V36.96H272.495V126H260.975ZM339.13 126.72C332.73 126.72 327.05 125.32 322.09 122.52C317.13 119.72 313.21 115.88 310.33 111C307.45 106.04 306.01 100.44 306.01 94.2C306.01 87.88 307.45 82.28 310.33 77.4C313.21 72.52 317.13 68.72 322.09 66C327.05 63.2 332.73 61.8 339.13 61.8C345.45 61.8 351.09 63.2 356.05 66C361.09 68.72 365.01 72.52 367.81 77.4C370.69 82.2 372.13 87.8 372.13 94.2C372.13 100.52 370.69 106.12 367.81 111C365.01 115.88 361.09 119.72 356.05 122.52C351.09 125.32 345.45 126.72 339.13 126.72ZM339.13 116.64C343.21 116.64 346.85 115.72 350.05 113.88C353.33 112.04 355.89 109.44 357.73 106.08C359.57 102.64 360.49 98.68 360.49 94.2C360.49 89.64 359.57 85.72 357.73 82.44C355.89 79.08 353.33 76.48 350.05 74.64C346.85 72.8 343.21 71.88 339.13 71.88C335.05 71.88 331.41 72.8 328.21 74.64C325.01 76.48 322.45 79.08 320.53 82.44C318.61 85.72 317.65 89.64 317.65 94.2C317.65 98.68 318.61 102.64 320.53 106.08C322.45 109.44 325.01 112.04 328.21 113.88C331.41 115.72 335.05 116.64 339.13 116.64ZM433.302 150C427.462 150 421.782 149.16 416.262 147.48C410.822 145.88 406.382 143.56 402.942 140.52L408.462 131.64C411.422 134.2 415.062 136.2 419.382 137.64C423.702 139.16 428.222 139.92 432.942 139.92C440.462 139.92 445.982 138.16 449.502 134.64C453.022 131.12 454.782 125.76 454.782 118.56V105.12L455.982 92.52L455.382 79.8V62.4H466.302V117.36C466.302 128.56 463.502 136.8 457.902 142.08C452.302 147.36 444.102 150 433.302 150ZM431.862 123.36C425.702 123.36 420.182 122.08 415.302 119.52C410.502 116.88 406.662 113.24 403.782 108.6C400.982 103.96 399.582 98.6 399.582 92.52C399.582 86.36 400.982 81 403.782 76.44C406.662 71.8 410.502 68.2 415.302 65.64C420.182 63.08 425.702 61.8 431.862 61.8C437.302 61.8 442.262 62.92 446.742 65.16C451.222 67.32 454.782 70.68 457.422 75.24C460.142 79.8 461.502 85.56 461.502 92.52C461.502 99.4 460.142 105.12 457.422 109.68C454.782 114.24 451.222 117.68 446.742 120C442.262 122.24 437.302 123.36 431.862 123.36ZM433.182 113.28C437.422 113.28 441.182 112.4 444.462 110.64C447.742 108.88 450.302 106.44 452.142 103.32C454.062 100.2 455.022 96.6 455.022 92.52C455.022 88.44 454.062 84.84 452.142 81.72C450.302 78.6 447.742 76.2 444.462 74.52C441.182 72.76 437.422 71.88 433.182 71.88C428.942 71.88 425.142 72.76 421.782 74.52C418.502 76.2 415.902 78.6 413.982 81.72C412.142 84.84 411.222 88.44 411.222 92.52C411.222 96.6 412.142 100.2 413.982 103.32C415.902 106.44 418.502 108.88 421.782 110.64C425.142 112.4 428.942 113.28 433.182 113.28ZM507.394 126V42H540.154C547.514 42 553.794 43.16 558.994 45.48C564.194 47.8 568.194 51.16 570.994 55.56C573.794 59.96 575.194 65.2 575.194 71.28C575.194 77.36 573.794 82.6 570.994 87C568.194 91.32 564.194 94.68 558.994 97.08C553.794 99.4 547.514 100.56 540.154 100.56H513.994L519.394 94.92V126H507.394ZM519.394 96.12L513.994 90.12H539.794C547.474 90.12 553.274 88.48 557.194 85.2C561.194 81.92 563.194 77.28 563.194 71.28C563.194 65.28 561.194 60.64 557.194 57.36C553.274 54.08 547.474 52.44 539.794 52.44H513.994L519.394 46.44V96.12ZM635.549 126.72C629.149 126.72 623.469 125.32 618.509 122.52C613.549 119.72 609.629 115.88 606.749 111C603.869 106.04 602.429 100.44 602.429 94.2C602.429 87.88 603.869 82.28 606.749 77.4C609.629 72.52 613.549 68.72 618.509 66C623.469 63.2 629.149 61.8 635.549 61.8C641.869 61.8 647.509 63.2 652.469 66C657.509 68.72 661.429 72.52 664.229 77.4C667.109 82.2 668.549 87.8 668.549 94.2C668.549 100.52 667.109 106.12 664.229 111C661.429 115.88 657.509 119.72 652.469 122.52C647.509 125.32 641.869 126.72 635.549 126.72ZM635.549 116.64C639.629 116.64 643.269 115.72 646.469 113.88C649.749 112.04 652.309 109.44 654.149 106.08C655.989 102.64 656.909 98.68 656.909 94.2C656.909 89.64 655.989 85.72 654.149 82.44C652.309 79.08 649.749 76.48 646.469 74.64C643.269 72.8 639.629 71.88 635.549 71.88C631.469 71.88 627.829 72.8 624.629 74.64C621.429 76.48 618.869 79.08 616.949 82.44C615.029 85.72 614.069 89.64 614.069 94.2C614.069 98.68 615.029 102.64 616.949 106.08C618.869 109.44 621.429 112.04 624.629 113.88C627.829 115.72 631.469 116.64 635.549 116.64ZM720.121 126.72C714.841 126.72 709.801 126 705.001 124.56C700.281 123.12 696.561 121.36 693.841 119.28L698.641 110.16C701.361 112 704.721 113.56 708.721 114.84C712.721 116.12 716.801 116.76 720.961 116.76C726.321 116.76 730.161 116 732.481 114.48C734.881 112.96 736.081 110.84 736.081 108.12C736.081 106.12 735.361 104.56 733.921 103.44C732.481 102.32 730.561 101.48 728.161 100.92C725.841 100.36 723.241 99.88 720.361 99.48C717.481 99 714.601 98.44 711.721 97.8C708.841 97.08 706.201 96.12 703.801 94.92C701.401 93.64 699.481 91.92 698.041 89.76C696.601 87.52 695.881 84.56 695.881 80.88C695.881 77.04 696.961 73.68 699.121 70.8C701.281 67.92 704.321 65.72 708.241 64.2C712.241 62.6 716.961 61.8 722.401 61.8C726.561 61.8 730.761 62.32 735.001 63.36C739.321 64.32 742.841 65.72 745.561 67.56L740.641 76.68C737.761 74.76 734.761 73.44 731.641 72.72C728.521 72 725.401 71.64 722.281 71.64C717.241 71.64 713.481 72.48 711.001 74.16C708.521 75.76 707.281 77.84 707.281 80.4C707.281 82.56 708.001 84.24 709.441 85.44C710.961 86.56 712.881 87.44 715.201 88.08C717.601 88.72 720.241 89.28 723.121 89.76C726.001 90.16 728.881 90.72 731.761 91.44C734.641 92.08 737.241 93 739.561 94.2C741.961 95.4 743.881 97.08 745.321 99.24C746.841 101.4 747.601 104.28 747.601 107.88C747.601 111.72 746.481 115.04 744.241 117.84C742.001 120.64 738.841 122.84 734.761 124.44C730.681 125.96 725.801 126.72 720.121 126.72ZM801.238 126.72C794.838 126.72 789.878 125 786.358 121.56C782.838 118.12 781.078 113.2 781.078 106.8V48.48H792.598V106.32C792.598 109.76 793.438 112.4 795.118 114.24C796.878 116.08 799.358 117 802.558 117C806.158 117 809.158 116 811.558 114L815.158 122.28C813.398 123.8 811.278 124.92 808.798 125.64C806.398 126.36 803.878 126.72 801.238 126.72ZM770.278 71.88V62.4H810.838V71.88H770.278Z" fill="#2805FF"/>
</svg>
